<svg
  fill="#00b5d4"
  preserveAspectRatio="xMidYMid"
  viewBox="0 0 800 600.7"
  xmlns="http://www.w3.org/2000/svg"
  width="1em"
  height="1em"
>
  <title>Birdhouse Logo</title>
  <path d="M333.59,554.88c0-9.03-.32-18.07,.05-27.08,1.91-46.12,23.01-83.36,54.1-115.89,5.59-5.85,10.73-12.26,16.91-17.41,14.15-11.8,28.79-23.01,43.28-34.41,4.25-3.34,8.64-6.52,12.72-10.11-11.12,6.25-22.18,12.61-33.37,18.72-39.62,21.61-81.64,36.52-125.93,45.1-29.65,5.74-59.56,8.81-89.73,7.16-19.46-1.06-38.7-4.03-56.07-14.03-7.05-4.06-12.79-9.46-17.09-16.35-.87-1.39-1.48-2.95-1.9-4.61,22.89,19.61,50.48,24.25,78.96,24.92,46.72,1.11,91.85-7.24,134.87-25.72,25.64-11.01,48.31-26.53,67.49-46.94,1.08-1.15,2.1-2.36,3.73-4.2-21.32-2.74-39.47-10.35-54.15-26.04,2.15-.83,3.73-1.44,5.32-2.05-16.8-5.52-26.13-19.06-36.95-32.47,4.65-.65,8.18-1.14,12.52-1.75-24.84-17.06-41.69-39.16-51.36-67.61,7.8,2.49,14.82,4.74,21.84,6.98-26.37-26.19-43.01-56.78-46.84-94.04,3.36,4.18,6.63,8.43,10.1,12.51,33.86,39.77,75.43,69.31,122.24,91.88,32.36,15.6,66.03,27.56,100.87,36.21,17.94,4.46,30.21,14.86,35.12,32.98,3.82,14.11-2.42,25.3-11.19,35.5-14.05,16.33-31.98,27.81-49.79,39.4-22.76,14.82-45.22,30.04-65.58,48.11-20.92,18.58-40.51,38.38-55.23,62.45-13.7,22.4-21.68,46.65-23.25,72.94-.12,1.98-.42,3.95-.64,5.93l-1.04-.07Zm14.95-311.94l-.27,.4c8.19,3.87,16.23,8.09,24.59,11.53,20.85,8.59,42.69,13.67,65.13,14.88,13.9,.75,27.93-.83,41.89-1.54,1.31-.07,2.56-1.38,3.84-2.12-1.3-.57-2.59-1.58-3.92-1.65-8.54-.44-17.1-.66-25.65-.99-24.52-.96-48.64-4.91-72.44-10.61-11.2-2.68-22.12-6.56-33.16-9.9Zm139.65,34.49c-.41-4.09-2.18-4.26-5.73-3.46-11.87,2.68-23.8,6.11-35.85,6.81-16.86,.98-33.86-.1-50.79-.57-5.85-.16-11.68-1.11-17.77-1.73,25.34,11.71,82.69,14.4,110.15-1.06Zm-16.9-19.1c-21.53-6.83-44.91-13.74-67.93-21.69-22.95-7.93-45.54-16.91-68.38-25.46,42.66,25.84,89.14,40.28,136.31,47.15Zm-60.47,48.83c13.06,1.28,34.74-.25,47.37-3.55,10.76-2.82,21.05-6.8,29.53-14.28,1.65-1.45,2.47-3.83,3.68-5.78l-1.05-.65c-17.38,13.96-37.45,20.08-79.53,24.26Zm55.48,1.59c8.43-1.5,16.81-3.74,23.7-9.53-7.9,3.18-15.8,6.36-23.7,9.53Z" />
  <path d="M413.86,420.84c5.56-4.68,10.96-9.56,16.7-14.01,16.21-12.56,34.91-19.36,54.81-23.3,15.72-3.12,31.75-5.1,46.63-11.55,37.86-16.4,59.34-45.71,67.04-85.69,1-5.19,1.14-10.54,1.82-15.79,.38-2.92-.82-4.58-3.35-5.95-14.29-7.75-29.57-9.73-45.44-7.77-5.23,.65-10.34,2.27-15.53,3.28-1.31,.25-3.14,.39-4.05-.3-17.78-13.58-38.28-21.92-58.59-30.64-33.7-14.46-67.37-28.99-101-43.6-1.75-.76-3.75-2.14-4.52-3.76-5.41-11.39-8.72-23.43-10.29-35.93-.11-.85,.09-1.73,.17-2.84,7.32,3.67,14.45,7.25,21.57,10.83l.69-.94c-27.69-35.55-39.9-75.75-36.14-120.87,.65,1.05,1.37,2.06,1.95,3.15,19.75,36.96,45.23,69.63,76.34,97.49,23.28,20.85,48.16,39.9,72.33,59.76,11.64,9.56,23.16,19.25,32.12,31.61,5.41-4.57,10.49-9.25,15.96-13.4,14.33-10.87,30.24-17.8,48.56-17.61,24.67,.25,42.2,12.24,53.59,33.63,1.54,2.89,3.31,4.23,6.26,5.34,10.58,4,21,8.4,31.45,12.74,1.25,.52,2.28,1.57,3.42,2.38-7.61,.37-14.95,.36-22.21,1.15-13.69,1.5-24.37,7.92-32.9,19.09-11.68,15.3-22.68,30.8-30.02,48.78-6.95,17.03-16.15,32.83-29.28,46-17.52,17.57-39.05,27.02-63.32,30.65-16.15,2.42-32.46,3.96-48.46,7.09-16.11,3.16-30.47,10.8-43.48,20.86-.62,.48-1.39,.76-2.09,1.13l-.75-1.01Zm-10.33-248.81c25.66,24.25,56.36,40.77,87.4,56.77-27.07-22.09-57.05-39.71-87.4-56.77Z" />
  <path d="M205.37,527.81c6.79-15.29,16.37-27.02,26.99-37.98,19.76-20.39,43.22-35.79,68.25-48.58,25.56-13.06,51.88-24.65,77.88-36.86,1.12-.53,2.36-.79,3.77-.62-7.25,4.41-14.51,8.8-21.75,13.23-27.53,16.8-52.66,36.85-77.7,57.05-23.21,18.72-47.09,36.51-72.99,51.41-1.1,.64-2.25,1.2-4.45,2.36Z" />
  <path d="M165.7,471.07c5.23-3.96,10.2-8.32,15.74-11.79,17.51-10.98,36.81-17.89,56.56-23.42,42.79-11.99,85.67-23.61,128.5-35.47,7.61-2.11,15.1-4.67,23.24-7.21-14.52,13.28-201.9,79.4-223.28,79.08l-.75-1.18Z" />
  <path d="M268.3,540.11c2.37-6.57,4.4-13.28,7.17-19.68,11.15-25.79,28.76-46.85,48.82-66.11,23-22.08,49.23-39.9,75.53-57.63,.34-.23,.79-.31,1.73,0-.89,.93-1.67,1.99-2.69,2.76-32.43,24.4-58.63,54.56-81.81,87.62-12.81,18.26-27.02,35.43-43.65,50.43-1.27,1.14-2.6,2.21-3.89,3.32-.4-.23-.81-.47-1.21-.7Z" />
</svg>